<?xml version="1.0" standalone="no"?>
<!DOCTYPE svg PUBLIC "-//W3C//DTD SVG 20010904//EN"
 "http://www.w3.org/TR/2001/REC-SVG-20010904/DTD/svg10.dtd">
<svg version="1.0" xmlns="http://www.w3.org/2000/svg"
 width="128.000000pt" height="128.000000pt" viewBox="0 0 128.000000 128.000000"
 preserveAspectRatio="xMidYMid meet">

<g transform="translate(0.000000,128.000000) scale(0.100000,-0.100000)"
fill="#000000" stroke="none">
<path d="M48 1253 c-13 -33 -23 -195 -13 -220 3 -10 7 -50 8 -90 2 -52 -1 -69
-9 -62 -8 6 -11 1 -10 -18 2 -41 14 -54 44 -48 15 2 9 -1 -13 -9 -32 -10 -36
-14 -20 -18 16 -5 17 -6 3 -7 -16 -1 -18 -16 -18 -156 0 -150 1 -155 19 -146
14 8 20 7 24 -3 3 -8 -5 -19 -19 -26 -17 -9 -24 -22 -24 -42 0 -36 16 -36 67
2 29 22 44 27 49 19 4 -7 0 -17 -8 -23 -78 -59 -82 -64 -67 -82 13 -16 12 -17
-14 -12 -15 3 -27 1 -27 -3 0 -10 21 -13 63 -10 15 1 27 -2 27 -7 0 -12 -24
-22 -58 -23 l-27 -1 30 -9 c17 -5 38 -6 48 -3 9 3 17 1 17 -5 0 -6 -17 -11
-37 -12 l-38 -1 30 -13 c17 -7 35 -11 40 -8 6 3 0 -5 -12 -17 l-22 -24 47 -16
c26 -9 49 -14 52 -10 7 10 110 43 116 38 2 -3 -5 -17 -17 -31 -11 -15 -16 -27
-12 -27 5 0 19 13 31 30 21 28 52 44 36 18 -5 -8 -2 -9 10 -5 15 6 17 3 12
-18 -7 -29 0 -32 25 -9 16 15 17 14 12 -8 -6 -22 -5 -22 14 -6 24 22 39 23 47
3 3 -9 12 -12 22 -8 12 4 15 3 10 -5 -4 -7 -1 -12 8 -12 8 0 23 -18 33 -39 29
-63 100 -90 117 -46 3 8 13 15 21 15 9 0 14 -4 11 -9 -3 -4 6 -6 19 -3 14 2
25 8 25 13 0 5 12 4 26 -1 14 -6 40 -10 57 -10 18 0 43 -8 56 -17 23 -16 24
-16 19 5 -4 12 -2 25 3 28 5 3 9 18 9 33 0 21 -6 30 -22 35 -22 6 -22 7 -5 20
18 14 18 14 0 20 -10 3 -1 3 20 0 30 -4 37 -2 37 12 0 12 6 15 25 10 14 -4 25
-2 25 3 0 6 16 1 36 -11 30 -18 37 -19 45 -7 5 8 7 19 4 26 -2 7 5 15 16 18
19 6 19 8 4 31 -14 22 -12 28 8 25 4 0 7 4 7 10 0 7 11 9 30 6 17 -4 30 -2 30
3 0 11 -25 37 -41 42 -9 3 -9 9 -2 21 9 17 10 16 28 -3 23 -26 39 -26 25 0 -8
15 -8 20 2 20 9 0 9 3 0 12 -18 18 -15 27 8 21 11 -3 20 -1 21 3 0 5 2 17 4
26 2 10 -2 21 -7 25 -7 4 -8 1 -2 -8 4 -8 -24 15 -64 51 -40 35 -72 66 -72 68
0 2 16 -6 35 -18 19 -12 35 -17 35 -12 0 14 -94 94 -98 83 -2 -5 -22 4 -45 20
-77 54 -119 80 -123 76 -2 -2 17 -25 43 -51 70 -68 98 -100 95 -108 -1 -5 1
-7 6 -6 18 3 44 -18 92 -75 51 -61 51 -61 7 -16 -25 26 -48 45 -50 43 -2 -2
-12 5 -22 16 -10 11 -24 20 -31 20 -7 0 -23 13 -35 30 -13 16 -40 41 -61 55
-23 15 -38 33 -38 45 0 11 -7 20 -15 20 -9 0 -29 7 -46 15 -22 12 -34 13 -49
5 -16 -9 -22 -8 -26 5 -13 32 10 79 49 100 20 11 37 23 37 26 0 16 -73 39
-127 39 -52 1 -56 2 -39 15 12 9 30 12 49 8 25 -5 29 -3 24 10 -5 13 -1 17 14
17 14 0 19 -5 16 -14 -4 -10 6 -23 27 -35 43 -27 52 -26 79 5 l22 25 3 -48 c3
-51 10 -63 53 -94 20 -14 36 -18 55 -13 24 6 26 10 20 44 -7 46 11 57 56 34
16 -8 32 -13 35 -11 2 3 -4 8 -14 11 -11 3 -50 35 -86 71 -57 55 -71 64 -92
59 -34 -9 -32 10 6 54 31 35 31 36 10 43 -31 12 -51 0 -58 -33 -5 -26 -7 -27
-22 -14 -15 14 -19 14 -32 1 -8 -7 -26 -17 -41 -20 -24 -6 -30 -3 -44 22 -17
29 -77 54 -129 54 -28 0 -67 28 -59 41 5 8 1 9 -10 5 -10 -4 -22 -7 -28 -7 -6
0 -5 -7 3 -17 10 -11 10 -14 2 -9 -7 4 -13 2 -13 -4 0 -7 -6 -8 -18 -1 -28 15
-77 -19 -68 -46 6 -15 -31 -24 -43 -9 -6 8 -4 19 9 35 20 28 8 51 -23 43 -13
-3 -42 18 -100 75 -93 90 -125 113 -162 113 -18 0 -29 -8 -37 -27z m486 -254
c-7 -13 -24 7 -24 29 0 10 4 10 16 -2 8 -9 12 -21 8 -27z m100 25 c28 -11 17
-32 -19 -36 -40 -5 -42 -2 -18 24 18 21 16 20 37 12z m-154 -26 c0 -13 -7 -18
-25 -18 -26 0 -35 25 -12 33 25 8 37 3 37 -15z m-130 -12 c-6 -8 -18 -12 -26
-9 -23 9 -16 23 12 23 22 0 24 -2 14 -14z m323 -57 c5 -17 2 -19 -16 -13 -12
4 -30 8 -39 8 -15 0 -15 3 4 23 23 25 42 18 51 -18z m-238 -35 c-6 -2 -9 -24
-7 -49 3 -38 1 -45 -14 -45 -11 0 -30 -3 -44 -5 -20 -4 -21 -4 -6 3 14 6 16
11 8 16 -7 4 -12 18 -12 31 0 18 7 26 25 31 13 3 30 12 36 20 7 8 15 12 18 8
3 -4 1 -8 -4 -10z m365 -14 c0 -5 -2 -10 -4 -10 -3 0 -8 5 -11 10 -3 6 -1 10
4 10 6 0 11 -4 11 -10z m160 -5 c7 -8 10 -28 8 -45 -4 -25 -1 -30 16 -30 20
-1 20 -1 3 -11 -21 -12 -71 -3 -62 11 3 6 2 10 -3 10 -6 0 -12 18 -14 40 -3
35 -1 40 18 40 12 0 27 -7 34 -15z m-468 -9 c10 -7 14 -17 10 -21 -4 -4 13 -5
38 -2 40 5 42 4 22 -7 -12 -6 -19 -15 -16 -19 4 -4 -1 -7 -12 -7 -10 0 -30 -3
-43 -7 -21 -5 -23 -3 -19 15 4 12 2 20 -3 16 -5 -3 -9 6 -9 20 0 29 7 32 32
12z m266 -35 c3 -9 0 -11 -7 -7 -7 4 -19 2 -27 -5 -12 -9 -20 -9 -39 1 -14 7
-25 17 -25 22 0 15 93 5 98 -11z m-427 -17 c12 -15 11 -16 -11 -9 -46 14 -58
24 -29 25 15 0 33 -7 40 -16z m306 -21 c48 -23 53 -29 53 -78 0 -24 -4 -35 -8
-28 -6 10 -12 10 -28 -2 -30 -23 -51 -19 -29 5 18 20 18 20 -13 9 -46 -16 -60
-7 -32 19 l24 22 -23 0 c-12 0 -34 -6 -49 -14 -15 -7 -45 -16 -67 -20 -37 -6
-34 -3 33 30 39 21 70 39 67 42 -2 2 -27 -3 -56 -12 -69 -23 -74 -12 -8 19 64
30 86 31 136 8z m210 -158 c9 -25 -2 -27 -22 -5 -17 18 -17 20 -1 20 9 0 19
-7 23 -15z m-787 -25 c-8 -5 -19 -10 -25 -10 -5 0 -3 5 5 10 8 5 20 10 25 10
6 0 3 -5 -5 -10z m230 -30 c-8 -5 -22 -9 -30 -9 -10 0 -8 3 5 9 27 12 43 12
25 0z m95 0 c-3 -5 -12 -10 -18 -10 -7 0 -6 4 3 10 19 12 23 12 15 0z m283
-149 c32 -23 82 -18 83 8 0 12 2 12 6 2 7 -17 -36 -56 -65 -58 -12 -1 -20 2
-18 6 3 4 -8 12 -25 18 -28 11 -29 10 -23 -14 5 -19 3 -24 -7 -21 -15 5 -24
41 -15 64 7 20 32 18 64 -5z m122 -25 c0 -29 -3 -33 -25 -33 -14 0 -25 3 -25
8 0 5 5 9 10 9 6 0 15 11 20 25 13 34 20 31 20 -9z m-560 -69 c0 -2 -12 -14
-27 -28 l-28 -24 24 28 c23 25 31 32 31 24z m564 -22 c29 -19 41 -23 56 -15
10 6 21 6 24 1 3 -4 20 -12 38 -15 l33 -7 -35 -18 c-19 -9 -34 -23 -32 -29 2
-14 -14 -16 -23 -3 -3 6 3 14 12 20 10 5 15 12 11 16 -3 3 -15 1 -26 -6 -16
-10 -18 -17 -11 -30 12 -24 -5 -34 -24 -14 -9 8 -19 15 -24 15 -4 0 -14 4 -22
9 -12 8 -12 13 -3 24 10 11 9 17 -3 27 -8 7 -15 18 -15 26 0 7 -10 15 -22 17
-21 4 -20 4 3 6 14 0 43 -10 63 -24z m-204 -285 c0 -5 -2 -10 -4 -10 -3 0 -8
5 -11 10 -3 6 -1 10 4 10 6 0 11 -4 11 -10z"/>
<path d="M1100 1233 c-58 -39 -127 -115 -127 -139 0 -20 2 -22 14 -13 11 10
11 14 1 20 -9 6 -5 9 12 9 27 0 110 74 110 98 0 15 16 16 25 2 3 -5 0 -10 -7
-10 -7 0 -3 -8 10 -18 18 -14 22 -24 18 -55 -3 -21 -7 -41 -10 -45 -2 -4 2
-16 10 -27 13 -18 14 -17 14 12 0 16 3 57 6 90 5 48 3 62 -10 76 -22 21 -35
21 -66 0z"/>
<path d="M575 1131 c3 -6 -2 -14 -11 -19 -12 -7 -2 -13 45 -24 34 -9 61 -12
61 -7 0 5 17 9 38 9 47 0 56 7 36 28 -11 10 -18 12 -22 5 -9 -14 -78 -10 -115
5 -34 14 -40 15 -32 3z"/>
<path d="M430 1105 c-11 -13 -10 -14 4 -9 9 3 16 10 16 15 0 13 -6 11 -20 -6z"/>
<path d="M817 1052 c-30 -32 -18 -43 17 -17 14 10 17 18 10 25 -7 7 -16 5 -27
-8z"/>
<path d="M1018 1043 c6 -2 18 -2 25 0 6 3 1 5 -13 5 -14 0 -19 -2 -12 -5z"/>
<path d="M1140 1026 c0 -2 7 -6 15 -10 8 -3 15 -1 15 4 0 6 -7 10 -15 10 -8 0
-15 -2 -15 -4z"/>
<path d="M1157 960 c-3 -11 -1 -23 4 -26 5 -3 9 6 9 20 0 31 -6 34 -13 6z"/>
<path d="M1156 911 c-4 -7 -5 -15 -2 -18 9 -9 19 4 14 18 -4 11 -6 11 -12 0z"/>
<path d="M1125 840 c3 -5 11 -10 16 -10 6 0 7 5 4 10 -3 6 -11 10 -16 10 -6 0
-7 -4 -4 -10z"/>
<path d="M1070 771 c0 -13 29 -35 37 -28 7 8 -15 37 -28 37 -5 0 -9 -4 -9 -9z"/>
<path d="M870 730 c8 -5 20 -10 25 -10 6 0 3 5 -5 10 -8 5 -19 10 -25 10 -5 0
-3 -5 5 -10z"/>
<path d="M967 706 c10 -14 21 -26 26 -26 4 0 7 -6 7 -13 0 -19 29 -43 60 -50
24 -6 23 -4 -8 24 -19 17 -35 38 -36 47 -2 9 -17 22 -35 29 l-32 14 18 -25z"/>
<path d="M1083 683 c13 -21 22 -43 20 -49 -4 -11 76 -104 89 -104 13 0 -13 55
-40 83 -14 15 -23 27 -19 27 4 0 0 11 -9 25 -12 18 -13 25 -4 25 10 0 10 3 0
15 -7 8 -23 15 -36 15 l-24 0 23 -37z"/>
<path d="M937 686 c15 -13 30 -22 33 -19 6 6 -38 43 -52 43 -5 0 4 -11 19 -24z"/>
<path d="M1140 522 c0 -10 5 -23 12 -30 7 -7 8 -12 4 -12 -5 0 -3 -6 3 -14 14
-17 51 -9 51 10 0 14 -49 64 -62 64 -5 0 -8 -8 -8 -18z"/>
<path d="M32 195 c14 -31 29 -32 54 -3 17 19 17 21 1 15 -9 -4 -28 -2 -42 3
-23 9 -24 8 -13 -15z"/>
<path d="M210 150 c-21 -7 -21 -8 -5 -9 11 0 27 4 35 9 18 11 5 11 -30 0z"/>
<path d="M110 140 c8 -5 20 -10 25 -10 6 0 3 5 -5 10 -8 5 -19 10 -25 10 -5 0
-3 -5 5 -10z"/>
</g>
</svg>
