<?xml version="1.0" standalone="no"?>
<!DOCTYPE svg PUBLIC "-//W3C//DTD SVG 20010904//EN"
 "http://www.w3.org/TR/2001/REC-SVG-20010904/DTD/svg10.dtd">
<svg version="1.0" xmlns="http://www.w3.org/2000/svg"
 width="512.000000pt" height="512.000000pt" viewBox="0 0 512.000000 512.000000"
 preserveAspectRatio="xMidYMid meet">
<metadata>
Created by potrace 1.14, written by Peter Selinger 2001-2017
</metadata>
<g transform="translate(0.000000,512.000000) scale(0.100000,-0.100000)"
fill="#000000" stroke="none">
<path d="M197 5104 c3 -8 10 -11 17 -7 6 3 1 -5 -12 -19 -14 -15 -24 -40 -25
-61 -2 -34 -14 -43 -29 -22 -5 6 -8 6 -8 -2 0 -6 7 -19 16 -27 14 -15 14 -16
0 -16 -9 0 -16 6 -17 13 -1 15 -17 -37 -23 -75 -3 -20 0 -28 11 -28 12 0 13 3
4 13 -8 10 -7 14 2 14 21 0 16 -29 -5 -35 -14 -3 -18 -14 -18 -48 0 -24 5 -44
10 -44 13 0 13 -27 0 -35 -6 -3 -7 1 -4 9 3 9 2 16 -4 16 -6 0 -12 -24 -14
-54 -2 -34 1 -52 7 -49 6 3 4 0 -2 -8 -16 -16 -18 -183 -3 -174 5 3 10 -1 10
-9 0 -14 11 -20 32 -18 3 1 9 -6 12 -14 5 -13 -1 -12 -29 5 -20 12 -38 21 -40
21 -2 0 -2 -28 0 -62 2 -34 -1 -68 -6 -75 -6 -7 -8 -17 -4 -23 4 -6 9 -66 12
-132 4 -108 3 -120 -12 -114 -9 3 -13 2 -10 -4 3 -6 1 -10 -5 -10 -6 0 -8 -10
-4 -26 7 -28 11 -53 13 -92 0 -13 5 -20 11 -17 5 3 10 -1 10 -10 0 -9 -3 -14
-8 -12 -4 3 -5 -15 -3 -40 5 -62 12 -47 16 33 2 37 0 62 -5 55 -5 -9 -9 -4
-12 13 -3 14 0 28 6 31 8 3 7 7 -1 11 -18 8 -16 24 2 24 8 0 15 -8 16 -17 0
-10 2 -27 5 -38 7 -35 7 -91 1 -102 -4 -5 0 -19 8 -29 13 -17 14 -17 15 -2 0
9 -6 19 -13 21 -9 4 -9 6 1 6 7 1 11 5 7 10 -3 5 -2 12 3 15 4 2 8 -12 7 -32
0 -20 3 -45 8 -55 4 -9 5 -23 0 -30 -10 -17 -11 -47 -1 -47 4 0 8 -9 8 -20 0
-11 -5 -20 -11 -20 -5 0 -7 -5 -4 -10 4 -6 11 -7 17 -4 8 5 9 1 5 -10 -4 -9
-1 -26 6 -37 10 -17 9 -22 -6 -30 -17 -10 -17 -12 -2 -29 9 -9 15 -24 13 -31
-2 -8 3 -13 9 -11 20 3 15 -6 -8 -19 -12 -6 -19 -7 -16 -2 4 5 -4 25 -17 44
-24 35 -52 108 -48 123 2 5 -4 6 -13 2 -9 -3 -19 -6 -21 -6 -3 0 -2 -5 1 -10
4 -6 9 -8 13 -6 10 6 8 -46 -1 -62 -6 -8 -4 -11 4 -10 7 2 14 -4 14 -12 1 -8
6 -28 13 -43 7 -16 12 -31 12 -33 0 -12 -23 10 -41 40 l-20 31 4 -36 c2 -19 9
-44 14 -55 6 -10 8 -25 6 -32 -3 -7 1 -10 9 -7 7 3 33 -15 58 -40 24 -25 39
-45 32 -45 -7 0 -12 5 -12 10 0 6 -9 10 -19 10 -11 0 -36 17 -55 38 -31 32
-36 34 -36 16 0 -11 6 -29 14 -40 11 -15 12 -22 3 -34 -10 -13 -10 -13 3 -3
12 9 24 4 63 -31 48 -44 56 -56 36 -56 -5 0 -8 4 -5 9 7 11 -22 23 -37 14 -6
-4 -8 0 -4 9 4 12 1 14 -14 11 -18 -5 -18 -6 -2 -18 9 -7 22 -11 29 -8 6 2 14
-3 17 -11 7 -18 34 -21 39 -5 2 7 16 0 33 -16 17 -14 25 -24 18 -21 -21 11
-122 18 -158 12 -29 -6 -35 -11 -35 -31 0 -19 6 -25 23 -26 28 -2 26 -2 63 4
17 3 41 -2 55 -10 13 -8 16 -12 7 -9 -9 3 -18 1 -20 -5 -3 -8 -41 -14 -110
-18 -17 -1 -18 -20 -18 -261 1 -156 5 -262 10 -265 6 -3 10 -2 10 4 0 14 37
33 44 23 2 -4 0 -14 -5 -22 -7 -12 -11 -13 -18 -2 -7 11 -9 10 -15 -3 -3 -9
-10 -13 -16 -10 -6 4 -10 -26 -10 -84 0 -57 4 -91 11 -91 10 0 61 22 145 61
22 10 46 19 52 19 22 0 12 -20 -15 -31 -16 -6 -40 -17 -54 -25 -15 -8 -35 -15
-45 -17 -11 -2 -36 -11 -56 -21 l-37 -18 -1 -249 0 -249 67 36 c38 20 73 40
79 45 7 6 15 -5 23 -34 7 -23 17 -47 22 -53 8 -10 -40 -45 -153 -113 l-38 -23
0 -73 c0 -82 2 -85 78 -85 28 0 42 -4 34 -8 -7 -5 -35 -7 -62 -4 l-50 4 0 -32
0 -31 57 6 58 6 -29 -26 c-15 -14 -26 -28 -23 -31 3 -3 25 14 50 38 61 58 85
78 97 78 6 0 10 4 10 8 0 5 19 22 43 39 23 17 52 39 64 49 12 11 32 28 45 39
37 32 51 34 79 11 15 -11 35 -26 45 -33 18 -11 17 -14 -16 -40 -19 -15 -35
-26 -35 -23 0 3 -12 -5 -25 -18 -14 -13 -37 -31 -52 -40 -16 -9 -28 -20 -28
-24 0 -4 -5 -8 -11 -8 -20 0 -74 -53 -71 -69 2 -14 1 -14 -7 -1 -8 12 -13 12
-31 -5 -16 -14 -18 -21 -8 -28 9 -6 6 -7 -10 -4 -13 3 -25 -1 -30 -10 -5 -8
-13 -15 -18 -15 -5 0 -17 -6 -27 -13 -14 -10 -15 -14 -5 -18 7 -3 2 -6 -12 -6
l-25 -1 30 -19 c17 -10 47 -37 69 -59 l39 -41 -39 -7 c-45 -8 -144 10 -156 28
-5 8 0 19 12 30 11 9 20 20 20 24 0 4 -13 -5 -30 -21 -46 -44 -40 -65 26 -96
72 -35 166 -36 276 -4 46 13 74 17 68 10 -5 -6 -7 -15 -3 -19 4 -4 -1 -4 -11
0 -14 5 -17 4 -12 -4 4 -7 2 -12 -5 -12 -7 0 -5 -6 6 -14 18 -13 16 -15 -21
-38 -22 -14 -60 -29 -84 -33 -52 -9 -176 -9 -235 0 -37 6 -36 4 30 -29 91 -47
191 -63 280 -44 120 24 127 23 70 -12 -19 -12 -32 -26 -29 -32 4 -6 9 -6 13
-1 3 5 20 10 36 11 l30 1 -24 -19 c-13 -11 -33 -20 -45 -21 -139 -7 -164 -5
-273 30 -47 14 -41 -1 14 -35 61 -38 124 -61 189 -68 l51 -6 94 100 c52 55
114 122 139 148 190 200 219 234 214 246 -3 8 -1 17 5 21 7 4 9 -1 5 -12 -6
-18 43 31 122 122 23 26 46 46 52 44 12 -4 -25 -48 -145 -176 -61 -65 -71 -79
-60 -92 10 -14 10 -14 -3 -4 -13 10 -35 -9 -140 -125 -126 -138 -181 -197
-285 -307 -82 -86 -165 -181 -165 -189 0 -3 9 3 19 13 11 11 28 18 38 17 10
-2 12 -1 5 1 -14 5 -16 23 -3 23 5 0 20 -4 34 -9 13 -5 41 -12 61 -15 21 -4
42 -8 46 -11 5 -3 10 0 12 6 2 7 9 5 17 -5 12 -14 10 -16 -15 -17 l-29 -1 30
-9 c17 -6 38 -12 47 -14 10 -2 28 -11 40 -19 25 -18 42 -21 33 -6 -8 12 -8 12
35 0 27 -8 43 -6 67 5 76 35 103 45 188 71 50 16 92 29 95 30 23 6 83 32 129
55 30 15 57 26 60 24 2 -3 -2 -17 -10 -32 -7 -16 -15 -32 -18 -37 -2 -5 4 -6
14 -2 15 5 16 4 5 -9 -14 -17 -35 -21 -24 -4 4 7 1 10 -7 7 -8 -3 -19 -15 -26
-28 -6 -12 -23 -34 -37 -47 -14 -13 -26 -26 -26 -29 0 -8 49 30 50 39 0 5 5 5
12 1 6 -4 8 -3 5 3 -4 6 0 19 8 29 9 12 14 14 15 6 0 -7 6 -10 12 -7 14 7 -51
-55 -98 -95 -31 -26 -38 -30 -51 -30 -5 0 -22 -13 -39 -30 -18 -16 -35 -26
-39 -22 -5 4 -5 1 -1 -6 7 -11 11 -10 25 2 16 15 62 24 48 9 -8 -8 12 -33 26
-33 6 0 2 7 -9 15 -17 13 -17 14 -2 15 9 0 20 -5 23 -10 5 -8 11 -8 19 -1 9 7
17 7 26 -2 12 -10 12 -9 1 5 -7 10 -17 15 -22 12 -16 -9 -10 3 8 17 11 10 14
10 9 2 -5 -9 -1 -13 11 -13 24 1 55 25 45 35 -4 5 -2 5 5 1 6 -3 20 6 31 21
35 50 41 68 30 84 -8 11 -9 11 -4 -3 3 -12 0 -18 -9 -18 -7 0 -16 -8 -19 -17
-3 -10 -20 -26 -37 -36 -25 -14 -29 -20 -20 -31 9 -10 9 -16 1 -21 -6 -4 -9
-1 -8 6 2 7 -4 13 -12 13 -27 -1 -50 -16 -51 -33 0 -9 -3 -11 -5 -4 -3 7 -12
9 -20 6 -30 -11 -11 6 49 45 34 22 86 65 115 96 28 30 54 50 57 45 4 -5 3 -14
-1 -21 -4 -7 -3 -8 4 -4 7 4 12 13 12 20 0 20 43 55 79 66 l33 9 -28 -29 c-38
-38 -49 -51 -64 -81 -7 -13 -19 -28 -27 -32 -8 -5 -11 -17 -7 -34 4 -15 3 -24
-2 -20 -6 3 -11 -3 -11 -14 -1 -10 0 -19 2 -19 4 0 48 72 51 83 1 4 3 10 4 15
1 4 2 11 1 15 -1 5 3 5 9 2 7 -4 14 2 17 14 6 23 11 25 31 12 11 -7 8 -17 -14
-52 -16 -24 -35 -50 -41 -57 -12 -13 -17 -27 -14 -44 0 -5 -3 -8 -8 -8 -5 0
-14 -14 -20 -30 -6 -18 -6 -28 -1 -25 6 4 10 12 10 20 0 7 7 15 15 19 8 3 15
12 15 20 0 8 3 16 8 18 4 2 29 34 56 72 27 38 44 66 38 62 -8 -5 -10 -2 -6 9
4 9 8 14 11 11 2 -2 16 7 30 20 30 28 45 31 36 7 -4 -10 -2 -14 4 -10 5 3 10
0 10 -8 0 -11 -4 -12 -13 -4 -17 14 -34 3 -34 -22 0 -10 -4 -19 -9 -19 -14 0
-22 -31 -11 -45 12 -14 15 -71 5 -105 l-7 -25 20 22 c11 12 22 20 24 17 3 -2
24 14 47 37 83 84 144 88 66 6 -25 -27 -45 -53 -45 -60 0 -7 9 -1 20 13 l19
25 -4 -40 c-3 -32 -2 -35 5 -17 5 12 12 22 15 22 4 0 3 -5 -1 -11 -15 -25 36
4 79 44 55 52 77 70 77 61 0 -3 8 0 17 7 15 12 16 12 10 -4 -6 -15 -3 -17 13
-12 17 5 20 2 20 -20 0 -21 4 -26 16 -21 9 4 -1 -15 -22 -41 -21 -27 -31 -42
-21 -34 9 7 17 9 17 3 0 -15 -26 -33 -35 -24 -5 4 -5 1 -1 -6 10 -17 11 -17
48 30 18 23 27 38 19 34 -9 -6 -12 -5 -7 2 4 6 14 8 23 5 11 -4 14 -3 9 5 -4
7 -3 12 3 12 17 0 22 -18 8 -32 -19 -18 -40 -59 -34 -65 3 -2 14 5 25 17 10
11 29 23 42 25 12 2 27 9 34 14 17 14 56 9 56 -6 0 -7 -4 -13 -9 -13 -5 0 -26
-21 -47 -48 -21 -26 -32 -42 -24 -36 45 34 113 63 140 61 30 -4 55 -17 31 -17
-7 0 -11 -6 -8 -14 3 -7 1 -18 -4 -23 -12 -12 0 -45 14 -36 6 3 7 1 3 -6 -5
-7 4 -23 21 -38 15 -15 28 -29 28 -32 1 -3 7 -17 15 -31 8 -14 15 -34 17 -45
5 -34 12 -47 23 -40 6 3 7 -1 4 -9 -3 -9 -1 -16 5 -16 6 0 11 -9 11 -19 0 -11
11 -24 28 -30 15 -6 38 -18 52 -26 95 -53 204 -85 184 -53 -5 7 -3 8 7 3 18
-12 80 -14 73 -4 -3 5 -1 9 4 9 5 0 9 7 9 15 0 8 -4 15 -9 15 -4 0 -8 5 -8 10
0 6 12 2 27 -7 26 -17 27 -17 20 1 -6 16 -5 17 8 6 12 -10 18 -10 32 1 9 8 19
13 22 11 3 -2 7 2 10 9 2 8 -2 10 -13 6 -20 -8 -76 2 -76 14 0 5 3 8 8 8 4 -1
9 -1 12 1 3 1 16 4 30 6 13 2 39 13 57 24 19 11 35 15 38 9 4 -5 11 -7 16 -4
5 3 6 -1 3 -9 -3 -9 -10 -16 -15 -16 -14 0 -11 -36 4 -49 8 -6 16 -9 19 -6 3
3 11 -1 18 -10 7 -8 18 -15 24 -15 6 0 3 5 -6 11 -10 5 -15 17 -12 27 4 10 2
13 -3 7 -11 -13 -36 -18 -29 -6 4 5 2 11 -4 13 -5 1 23 3 63 4 78 1 95 4 113
19 8 7 7 13 -3 23 -7 7 -13 24 -13 37 0 13 -3 32 -6 42 -3 12 0 11 13 -6 10
-14 24 -30 31 -35 7 -6 21 -19 30 -28 9 -10 22 -18 29 -18 7 0 13 -4 13 -10 0
-5 5 -10 11 -10 8 0 9 4 0 13 -17 22 0 29 22 10 11 -10 17 -13 14 -6 -4 6 -3
15 3 18 6 4 10 3 9 -2 -3 -17 1 -36 7 -31 3 4 20 0 37 -7 18 -7 46 -12 62 -10
17 1 43 3 58 3 17 1 26 6 22 13 -4 6 -14 8 -24 4 -12 -5 -13 -4 -4 6 10 10 16
9 28 -1 9 -7 30 -14 48 -16 43 -3 61 -7 68 -17 3 -5 14 -9 23 -11 10 -1 21 -9
26 -16 7 -11 11 -11 23 -1 12 9 17 9 23 0 4 -7 3 -9 -4 -5 -20 12 -22 -11 -1
-29 21 -20 139 -31 139 -13 0 5 -7 25 -15 44 -8 20 -12 41 -8 47 3 5 1 7 -4 4
-6 -4 -14 1 -17 10 -7 18 12 35 27 26 6 -4 7 5 3 21 -10 42 12 31 46 -24 31
-50 49 -69 28 -30 -6 11 -8 26 -4 32 5 7 3 8 -6 3 -10 -6 -12 -4 -7 9 4 10 3
15 -3 11 -5 -3 -7 0 -5 8 3 7 -3 24 -15 37 -11 13 -20 28 -20 34 0 6 7 2 16
-9 8 -11 25 -33 37 -49 12 -16 21 -32 20 -35 0 -3 5 -12 13 -19 18 -16 17 -4
-1 28 -17 30 -19 44 -5 35 5 -3 10 -1 10 5 0 7 -6 10 -13 7 -6 -2 -20 6 -30
19 -20 27 -12 31 17 9 16 -12 22 -12 29 -2 6 9 7 8 4 -4 -3 -9 -1 -22 3 -30 6
-8 4 -17 -3 -22 -8 -6 -6 -7 5 -4 17 6 34 -9 53 -45 5 -12 14 -20 19 -19 5 2
13 -3 17 -11 7 -10 9 -10 9 0 0 7 -11 24 -25 38 -14 14 -23 29 -20 33 7 12
-30 43 -40 34 -4 -5 -6 -1 -3 7 3 9 0 24 -8 35 -8 11 -14 13 -14 6 0 -7 -6
-11 -12 -8 -7 2 -12 10 -11 16 2 6 -7 11 -18 11 -18 0 -19 2 -9 15 16 19 5 32
-14 16 -11 -9 -15 -7 -19 9 -4 16 -11 20 -29 16 -17 -3 -25 1 -25 10 0 10 4
11 10 5 7 -7 17 -7 29 0 11 6 22 8 26 5 3 -3 0 -6 -7 -6 -7 0 -9 -5 -6 -10 3
-6 13 -10 21 -10 8 0 12 4 9 10 -8 13 1 13 25 0 15 -8 18 -6 16 8 -2 11 -12
17 -27 17 -13 0 -30 4 -38 9 -11 7 -8 12 14 24 35 18 21 28 -43 31 -44 1 -112
34 -112 54 0 13 32 57 41 57 5 0 28 9 52 20 64 29 137 52 151 47 8 -3 11 -17
8 -36 -2 -19 0 -31 7 -31 6 0 11 16 11 35 0 21 5 35 12 35 9 0 9 3 1 11 -6 6
-9 17 -6 24 2 7 -3 27 -12 44 -14 27 -14 31 0 31 8 0 15 -6 15 -13 0 -8 7 -14
15 -14 18 0 19 9 2 26 -10 11 -8 12 9 3 12 -6 24 -8 28 -4 4 3 4 -2 0 -13 -6
-14 -4 -17 9 -12 9 3 19 2 22 -3 4 -6 15 -10 25 -10 10 0 25 -7 34 -15 23 -23
28 -22 38 5 7 18 11 21 17 11 7 -11 9 -11 13 0 3 8 11 5 27 -12 l22 -24 -9 26
c-8 19 -7 26 3 26 7 0 11 -5 9 -11 -3 -7 2 -20 9 -30 11 -15 16 -16 22 -6 5 8
4 11 -2 7 -6 -4 -13 -1 -16 6 -8 21 24 16 65 -10 21 -12 42 -23 47 -23 5 0 11
-6 14 -14 3 -7 23 -16 44 -19 21 -4 51 -14 67 -22 40 -21 46 -19 43 18 -1 17
-8 32 -14 32 -6 0 -15 4 -20 8 -4 5 -1 7 7 5 11 -2 14 5 12 30 -2 23 1 32 11
32 8 0 17 -7 21 -15 3 -8 14 -15 25 -15 11 0 45 -13 76 -29 60 -31 85 -32 112
-5 16 15 18 15 30 -2 21 -29 15 -7 -14 46 -15 28 -31 50 -35 50 -4 0 -8 5 -8
10 0 7 7 7 20 0 11 -6 18 -14 16 -19 -3 -4 5 -18 17 -32 12 -14 23 -31 25 -39
2 -8 17 -26 34 -40 17 -14 40 -33 51 -42 28 -25 44 -23 22 2 -10 11 -23 20
-29 20 -6 0 -23 14 -38 30 -14 17 -24 30 -22 30 3 0 -4 12 -13 27 -10 15 -16
27 -14 28 2 0 -4 17 -13 39 -9 21 -16 42 -16 47 0 15 -18 19 -29 5 -9 -11 -9
-16 0 -22 7 -4 9 -3 5 4 -3 6 -2 13 4 17 5 3 10 2 10 -4 0 -5 3 -18 6 -28 4
-11 3 -14 -3 -7 -4 6 -16 10 -25 9 -9 -2 -19 3 -22 11 -3 8 -13 14 -23 12 -13
-2 -18 5 -19 27 l-3 30 25 -29 c20 -22 28 -26 34 -16 4 7 6 20 3 29 -5 13 -3
14 8 3 7 -6 17 -12 22 -12 5 0 -2 9 -17 21 -14 11 -24 24 -21 29 3 5 1 11 -4
14 -5 3 -7 -10 -4 -29 3 -19 2 -35 -1 -35 -10 0 -86 72 -86 81 0 5 12 9 28 9
l27 0 -35 23 c-19 12 -42 29 -52 37 -34 30 -48 41 -48 35 0 -3 -10 0 -22 6
-20 11 -20 13 -5 24 9 6 27 11 39 9 13 -1 34 -3 48 -4 14 -1 20 -4 13 -6 -10
-5 66 -84 80 -84 4 0 2 12 -4 27 l-10 28 28 -25 c15 -14 29 -28 31 -32 4 -9
32 -11 32 -3 0 3 -19 25 -43 48 -24 23 -51 54 -61 69 -16 25 -17 28 -2 34 9 3
13 11 9 18 -4 6 5 3 21 -7 15 -10 34 -16 42 -13 9 3 12 1 9 -4 -3 -6 3 -10 15
-10 12 0 19 -4 16 -9 -3 -5 4 -12 17 -16 12 -4 25 -8 30 -10 18 -6 22 -7 30
-6 4 0 7 -4 7 -11 0 -6 3 -8 7 -4 4 4 -13 25 -37 48 -25 22 -36 36 -24 30 11
-6 39 -31 62 -56 23 -25 43 -42 44 -38 0 4 2 12 3 17 2 6 3 23 4 38 1 19 5 26
14 22 6 -4 4 0 -5 8 -10 8 -18 20 -18 26 0 7 -16 29 -35 49 -19 20 -45 52 -58
70 -12 17 -28 30 -34 27 -7 -2 -13 -1 -13 4 0 9 -81 51 -99 51 -11 0 -15 13
-6 22 3 3 24 2 45 -2 22 -4 43 -3 46 1 3 5 0 9 -5 9 -6 0 -11 7 -11 15 0 24
29 18 55 -11 14 -15 25 -30 25 -33 0 -4 15 -14 33 -23 87 -45 119 -59 113 -50
-3 6 0 13 6 16 11 5 11 7 0 12 -6 3 -10 10 -7 15 4 5 -3 19 -15 31 -18 19 -22
20 -30 8 -7 -11 -9 -10 -7 8 0 12 2 22 4 22 8 0 84 -47 125 -76 32 -24 49 -31
54 -23 4 8 3 9 -4 5 -6 -4 -19 5 -28 19 -9 14 -19 23 -21 21 -3 -3 -19 8 -37
25 -17 16 -37 27 -46 23 -8 -3 -11 -2 -7 2 9 10 -34 46 -49 40 -7 -3 -10 2 -7
14 3 10 12 21 20 24 15 6 60 -18 80 -43 7 -8 15 -12 19 -9 3 3 -11 22 -31 42
l-36 36 33 48 c40 57 49 64 65 50 9 -7 13 -7 13 1 0 6 5 11 11 11 5 0 7 -4 4
-10 -8 -13 45 -25 63 -13 20 12 27 55 9 51 -8 -2 -30 13 -50 33 l-37 37 15 41
c8 23 14 42 14 44 0 1 3 21 7 45 6 40 17 52 28 33 6 -9 46 -22 46 -15 0 2 -13
10 -30 19 -26 13 -30 20 -28 55 l1 39 31 -17 c35 -19 108 -72 117 -85 3 -4 22
-17 42 -27 31 -17 37 -18 37 -5 0 8 -6 15 -12 15 -7 0 -26 12 -43 26 l-30 26
32 -21 c28 -19 53 -27 53 -17 0 10 -74 76 -85 76 -7 0 -15 3 -17 8 -9 20 -78
61 -98 57 -18 -4 -20 -2 -9 11 9 12 9 13 -2 9 -11 -4 -14 5 -14 42 2 112 -34
277 -85 391 -16 34 -24 60 -17 57 7 -4 2 2 -10 13 -33 29 -29 43 7 26 31 -16
48 -34 31 -34 -6 0 -8 -7 -5 -15 4 -8 10 -13 14 -10 10 6 32 -20 23 -28 -3 -4
2 -7 12 -7 16 0 16 3 -6 26 -24 25 -24 26 -4 41 11 8 29 19 39 25 16 9 18 8
13 -6 -4 -10 -3 -15 3 -11 6 3 10 1 10 -5 0 -7 8 -9 19 -5 11 3 24 -1 32 -12
12 -15 12 -16 -3 -10 -10 3 -20 1 -24 -6 -4 -7 -3 -9 1 -4 5 4 20 -3 34 -15
14 -13 20 -16 14 -8 -19 21 -16 34 5 19 9 -7 6 -1 -8 15 -29 33 -108 97 -97
79 5 -7 6 -13 2 -13 -3 0 -10 12 -15 26 -6 14 -14 23 -19 20 -5 -4 -8 2 -6 11
3 20 26 18 38 -3 5 -8 12 -12 18 -9 5 4 9 2 9 -3 0 -11 22 -21 60 -29 21 -3
18 0 -14 22 -21 14 -43 27 -49 28 -16 3 -117 104 -117 117 0 6 -7 10 -17 10
-9 0 -13 3 -10 6 4 4 -2 19 -13 34 -11 15 -17 30 -13 34 3 3 -1 6 -10 6 -11 0
-14 5 -10 17 5 12 3 14 -8 8 -8 -4 -11 -5 -7 0 4 4 0 14 -10 22 -10 9 -11 12
-2 7 8 -4 22 -13 32 -21 9 -9 18 -10 22 -5 7 12 -49 62 -72 63 -9 1 -31 0 -48
-1 -20 -1 -33 4 -37 14 -5 12 1 14 31 10 l37 -4 -40 19 c-28 14 -34 20 -20 21
18 1 18 2 -4 14 -20 11 -21 14 -6 19 22 9 27 9 21 -2 -3 -4 4 -8 16 -7 12 0
23 -5 26 -13 3 -9 0 -11 -9 -6 -8 5 -10 4 -6 0 4 -5 15 -10 23 -11 14 -2 14 0
1 19 -8 12 -18 21 -23 20 -5 -1 -15 3 -22 9 -10 8 -9 14 5 24 10 8 14 13 8 12
-14 -4 -55 33 -55 49 0 19 30 3 39 -20 7 -18 8 -18 24 -2 15 14 20 15 34 3 14
-11 16 -11 9 2 -4 8 0 6 8 -4 9 -11 16 -24 16 -30 0 -6 4 -6 11 1 8 8 21 6 48
-9 36 -20 36 -20 -11 25 -26 25 -44 47 -42 50 3 3 -3 8 -13 11 -24 8 -47 56
-32 70 7 8 15 5 27 -9 23 -27 97 -85 109 -85 6 0 23 -6 39 -14 26 -13 56 -20
122 -30 12 -2 22 2 22 8 0 6 4 4 9 -4 6 -8 8 -17 5 -21 -2 -4 1 -11 7 -15 8
-4 9 -3 5 4 -12 21 11 13 42 -13 35 -29 47 -32 38 -9 -4 12 -2 15 9 10 8 -3
15 -1 15 4 0 6 -5 10 -11 10 -5 0 -7 6 -3 13 4 6 4 9 -1 5 -4 -4 -15 -2 -23 5
-13 10 -14 9 -3 -10 10 -19 9 -23 -4 -23 -13 0 -19 12 -16 32 0 5 -2 7 -7 6
-4 -1 -22 7 -40 19 -31 19 -32 22 -15 32 11 7 13 10 4 11 -10 0 -11 3 -2 14 9
11 9 16 0 21 -8 6 -8 9 1 15 7 4 -2 10 -24 14 -22 4 -36 13 -36 21 0 8 5 15
10 15 6 0 10 -4 10 -9 0 -4 15 -11 33 -14 17 -3 41 -9 51 -13 14 -5 17 -4 12
5 -6 9 1 11 31 7 l38 -6 -39 15 c-28 11 -43 12 -52 4 -14 -11 -15 6 -1 28 4 6
3 14 -3 18 -5 3 -11 4 -11 1 -1 -3 -3 -10 -4 -16 -1 -5 -3 -15 -4 -22 0 -6 -8
-3 -16 8 -8 10 -15 16 -15 12 0 -4 -12 -3 -26 2 -28 11 -55 3 -34 -10 7 -4 9
-13 5 -19 -5 -9 -10 -9 -21 0 -13 10 -12 14 2 30 10 11 26 17 39 15 12 -2 28
0 36 5 13 8 -13 13 -58 12 -7 -1 -13 3 -13 8 0 6 -8 5 -19 -1 -14 -7 -22 -7
-27 2 -5 7 -3 8 7 3 8 -5 11 -4 6 1 -5 5 -12 9 -16 9 -4 0 -24 17 -44 38 -21
20 -42 37 -47 37 -6 0 -10 6 -10 13 0 7 -13 21 -30 30 -16 10 -30 22 -30 26 0
10 59 1 66 -10 7 -12 24 -12 24 0 0 5 -20 15 -45 22 -44 13 -54 22 -36 33 5 3
12 22 15 41 4 20 11 33 17 30 5 -4 9 -1 9 4 0 6 -4 11 -10 11 -6 0 -6 9 0 24
5 13 6 27 3 30 -4 3 -2 6 3 6 11 0 13 30 17 260 1 102 -1 188 -5 191 -4 3 -10
30 -12 61 -4 49 -2 57 15 61 10 3 19 13 20 24 3 108 1 221 -5 231 -4 7 -4 12
1 12 4 0 9 53 10 118 1 64 5 147 8 183 13 120 -36 243 -113 287 -32 18 -44 19
-82 11 -24 -6 -49 -14 -56 -19 -6 -6 -14 -7 -17 -3 -4 3 -7 1 -7 -5 0 -7 -7
-12 -16 -12 -11 0 -14 -5 -10 -16 5 -14 4 -15 -8 -5 -11 10 -17 8 -25 -6 -6
-10 -11 -14 -11 -10 0 4 -12 -3 -27 -17 -15 -14 -30 -23 -35 -20 -4 3 -8 -2
-8 -10 0 -8 -9 -18 -20 -21 -11 -3 -20 -11 -20 -16 0 -5 -6 -9 -14 -9 -8 0
-23 -15 -35 -32 -11 -18 -22 -31 -23 -28 -4 5 -106 -82 -174 -147 -19 -18 -34
-30 -34 -27 0 4 -27 -22 -60 -56 -33 -34 -60 -66 -60 -71 0 -5 -7 -9 -15 -9
-8 0 -14 -5 -12 -12 1 -6 -13 -21 -31 -34 -26 -18 -29 -23 -15 -26 10 -2 26 6
37 17 18 20 18 20 4 -5 -8 -14 -25 -29 -36 -35 -12 -5 -22 -13 -22 -16 0 -4
-20 -29 -45 -55 -37 -41 -45 -45 -45 -28 0 15 -18 33 -60 60 -43 28 -59 45
-60 62 0 20 -8 26 -27 20 -5 -2 -7 -6 -6 -10 3 -8 -12 -12 -29 -9 -5 0 -8 -3
-8 -9 0 -5 -7 -7 -15 -4 -14 6 -13 8 2 21 17 14 17 14 0 9 -15 -5 -16 -2 -7
14 6 11 15 20 20 20 5 0 7 6 5 13 -11 28 -222 14 -250 -17 -5 -6 -17 -12 -25
-13 -8 -1 -26 -4 -40 -8 -25 -5 -25 -5 -2 5 13 5 20 14 17 20 -4 6 5 10 19 10
14 0 26 5 26 10 0 6 -13 10 -30 10 -16 0 -30 -4 -30 -8 0 -4 -10 -8 -21 -9
-19 -2 -20 -1 -5 10 18 13 22 13 -104 3 -30 -2 -49 -2 -42 1 6 2 12 12 12 21
0 15 -2 15 -10 2 -5 -8 -10 -10 -10 -4 0 19 -37 23 -61 6 -15 -11 -20 -11 -14
-2 6 10 2 12 -16 7 -23 -6 -23 -5 5 17 19 16 39 23 63 21 48 -3 51 12 5 24
-32 9 -50 7 -110 -13 -55 -18 -72 -20 -72 -10 0 11 -6 11 -27 3 -15 -6 -31
-16 -35 -22 -6 -9 -8 -9 -8 0 0 13 -16 12 -45 -4 -11 -5 -26 -8 -34 -5 -7 2
-30 -13 -49 -34 -20 -22 -33 -32 -30 -24 23 57 23 56 -5 31 -15 -14 -27 -19
-27 -12 0 6 -7 23 -16 37 -14 20 -19 22 -31 12 -12 -10 -18 -9 -28 5 -7 9 -20
17 -29 17 -9 0 -16 5 -16 10 0 6 -12 10 -26 10 -23 0 -25 -3 -20 -27 4 -16 3
-23 -1 -18 -4 6 -17 11 -27 13 -18 3 -18 3 -2 -13 25 -25 11 -31 -15 -6 -13
12 -28 22 -33 22 -6 1 -18 2 -26 3 -8 1 -23 -2 -33 -7 -34 -16 -61 -17 -76 -3
-21 17 -54 29 -46 16 5 -9 -19 -12 -80 -12 -72 0 -70 17 2 21 26 1 49 4 52 7
9 9 -86 3 -124 -8 -22 -6 -43 -11 -47 -10 -22 5 -4 -18 20 -26 25 -9 24 -10
-15 -9 -23 1 -38 4 -32 8 6 4 7 9 2 12 -4 3 -31 -5 -58 -18 -32 -15 -43 -24
-29 -24 11 -1 24 3 30 9 11 11 133 -6 148 -21 11 -10 1 -12 -49 -10 -137 4
-155 -1 -140 -36 5 -10 9 -20 10 -23 1 -3 7 -18 13 -33 15 -36 15 -38 -3 -31
-8 4 -12 10 -9 15 3 5 0 9 -5 9 -6 0 -10 3 -10 8 1 4 -7 26 -17 50 -16 35 -23
42 -44 40 -14 -2 -31 -9 -38 -15 -7 -7 -22 -19 -33 -27 -18 -12 -25 -27 -28
-58 -1 -4 -17 0 -36 8 -42 17 -42 17 -49 -1 -3 -8 3 -31 14 -50 24 -42 24 -45
7 -45 -7 0 -21 14 -30 30 -10 17 -23 30 -29 30 -5 0 -8 6 -5 14 4 10 -1 12
-16 9 -13 -3 -18 -1 -12 4 13 10 13 28 2 40 -5 4 -8 4 -6 -2 4 -16 -12 -45
-22 -39 -5 3 -9 0 -9 -6 0 -6 -5 -8 -10 -5 -5 3 -10 27 -10 53 l0 47 -35 -39
c-19 -22 -35 -47 -35 -55 -1 -31 -19 13 -22 52 -2 42 -14 40 -24 -5 -3 -18
-13 -43 -22 -56 l-15 -23 -28 33 c-16 17 -29 38 -29 45 0 7 -4 13 -9 13 -5 0
-67 57 -138 126 -70 70 -137 134 -149 143 -11 9 -28 28 -38 43 -10 15 -22 25
-27 22 -5 -3 -9 2 -9 11 0 10 -5 13 -12 9 -6 -4 -8 -3 -5 3 7 10 -20 40 -38
43 -5 1 -9 5 -8 10 2 8 -8 19 -92 95 -33 30 -64 55 -68 55 -5 0 -22 9 -38 21
-25 17 -28 18 -22 3 8 -21 2 -18 -81 43 l-59 44 -138 -2 c-111 -1 -136 -4
-132 -15z m-54 -184 c-3 -12 -8 -19 -11 -16 -5 6 5 36 12 36 2 0 2 -9 -1 -20z
m4287 -50 c0 -5 -5 -10 -11 -10 -5 0 -7 5 -4 10 3 6 8 10 11 10 2 0 4 -4 4
-10z m-3645 -30 c3 -6 -1 -7 -9 -4 -18 7 -21 14 -7 14 6 0 13 -4 16 -10z
m3605 6 c0 -1 -28 -27 -62 -55 l-63 -53 60 56 c58 54 65 60 65 52z m-4253 -56
c-1 -11 -5 -20 -9 -20 -10 0 -10 4 -2 24 8 22 13 20 11 -4z m4081 -36 c-1 -5
-9 -9 -16 -10 -10 -2 -11 1 -1 12 12 14 24 13 17 -2z m42 -17 c0 -2 -15 -16
-32 -33 l-33 -29 29 33 c28 30 36 37 36 29z m-93 -34 c0 -9 -4 -10 -14 -2 -7
6 -13 12 -13 14 0 1 6 2 13 2 8 0 14 -6 14 -14z m-4037 -3 c0 -5 -2 -10 -4
-10 -3 0 -8 5 -11 10 -3 6 -1 10 4 10 6 0 11 -4 11 -10z m4015 -40 c-3 -5 -13
-10 -21 -10 -8 0 -12 5 -9 10 3 6 13 10 21 10 8 0 12 -4 9 -10z m44 7 c-2 -1
-13 -9 -24 -17 -19 -14 -19 -14 -6 3 7 9 18 17 24 17 6 0 8 -1 6 -3z m-4062
-49 c-3 -7 -5 -2 -5 12 0 14 2 19 5 13 2 -7 2 -19 0 -25z m3954 15 c12 -16 12
-17 -2 -6 -9 7 -20 9 -24 5 -5 -4 -5 -1 -1 6 9 16 11 15 27 -5z m652 -126 c1
-37 -1 -67 -5 -67 -8 0 -10 8 -12 80 -2 44 2 65 10 58 2 -3 5 -34 7 -71z
m-2716 57 c-3 -3 -12 -4 -19 -1 -8 3 -5 6 6 6 11 1 17 -2 13 -5z m493 -104 c0
-5 -5 -10 -11 -10 -5 0 -7 5 -4 10 3 6 8 10 11 10 2 0 4 -4 4 -10z m805 0 c-3
-6 -21 -17 -38 -26 -36 -19 -31 -9 10 17 34 21 36 22 28 9z m1421 -152 c-1
-87 -5 -122 -13 -125 -10 -4 -12 12 -8 64 3 37 5 94 5 126 -1 31 3 57 8 57 5
0 8 -55 8 -122z m-4501 74 c-7 -7 -65 19 -65 29 0 5 16 1 35 -8 19 -9 33 -19
30 -21z m2451 -17 c-8 -7 -12 -16 -8 -20 4 -5 2 -5 -5 -1 -16 9 -6 33 14 33
14 0 14 -1 -1 -12z m-2581 -65 c4 -6 11 -8 16 -5 5 4 9 0 9 -8 0 -7 16 -19 35
-27 19 -8 35 -18 35 -22 0 -5 4 -7 9 -4 5 3 14 -1 21 -9 18 -22 6 -18 -58 17
-61 35 -103 68 -84 68 6 0 14 -5 17 -10z m65 -197 c0 -3 -8 1 -17 8 -15 12
-16 12 -10 -3 8 -21 -4 -30 -23 -17 -8 5 -10 9 -4 9 6 0 11 7 11 15 0 8 -7 15
-14 15 -8 0 -11 5 -8 10 6 10 65 -24 65 -37z m0 -34 c0 -14 -5 -19 -14 -16 -8
3 -17 1 -20 -6 -3 -9 -5 -9 -5 0 -1 11 25 43 35 43 2 0 4 -9 4 -21z m-50 -23
c0 -8 3 -16 8 -19 4 -2 1 -2 -5 -1 -22 6 -14 -14 8 -21 11 -4 18 -9 16 -12 -3
-2 -25 2 -49 11 -41 14 -42 17 -8 20 8 1 14 9 14 19 -1 9 2 17 7 17 5 0 9 -6
9 -14z m50 -20 c0 -3 -4 -8 -10 -11 -5 -3 -10 -1 -10 4 0 6 5 11 10 11 6 0 10
-2 10 -4z m-14 -59 c4 -4 2 -7 -4 -7 -7 0 -12 -7 -12 -15 0 -8 -4 -15 -10 -15
-5 0 -10 4 -10 9 0 5 -3 17 -6 25 -5 12 -1 15 15 13 11 -2 24 -6 27 -10z m-5
-56 c-6 -10 -7 -21 -4 -25 3 -3 2 -6 -4 -6 -17 0 -25 32 -11 42 22 13 29 9 19
-11z m-1 -486 c0 -2 -6 -7 -12 -11 -7 -4 -10 -4 -6 1 4 4 0 14 -10 22 -15 13
-15 13 6 3 12 -6 22 -13 22 -15z m75 5 c3 -5 1 -10 -4 -10 -6 0 -11 5 -11 10
0 6 2 10 4 10 3 0 8 -4 11 -10z m4445 -110 c17 -17 34 -29 39 -26 5 3 11 -1
15 -9 3 -8 10 -15 15 -15 5 0 4 11 -2 24 -7 13 -15 22 -18 20 -4 -2 -13 4 -20
14 -13 16 -13 16 5 2 11 -8 22 -13 25 -10 3 3 10 -5 16 -18 5 -12 24 -28 41
-34 17 -6 31 -17 31 -24 0 -9 -5 -10 -18 -3 -26 13 -33 11 -19 -6 9 -10 9 -15
1 -15 -11 0 -15 13 -12 38 1 6 -2 12 -7 12 -16 0 -21 -27 -9 -40 9 -10 9 -11
-1 -5 -7 4 -17 18 -22 31 -5 13 -13 23 -17 22 -11 -4 -83 52 -83 63 0 15 10
10 40 -21z m-40 -20 c0 -5 8 -10 17 -10 9 0 14 -3 10 -6 -3 -4 1 -13 9 -21 21
-22 8 -30 -15 -9 -17 15 -20 15 -34 1 -10 -9 -18 -11 -22 -5 -3 5 0 10 7 11
10 0 10 2 1 6 -7 2 -13 12 -13 21 1 15 2 15 11 0 5 -10 15 -18 21 -18 9 0 9 3
0 12 -15 15 -16 28 -2 28 6 0 10 -4 10 -10z m-4420 -20 c18 -12 2 -12 -25 0
-13 6 -15 9 -5 9 8 0 22 -4 30 -9z m142 -14 c35 -16 -4 -29 -77 -27 -46 1 -91
21 -47 21 11 0 23 3 26 8 6 10 76 8 98 -2z m4252 -41 c36 -33 43 -54 19 -62
-10 -4 -73 76 -73 91 0 14 19 4 54 -29z m336 -85 c12 -7 10 -9 -8 -7 -12 0
-22 5 -22 9 0 11 12 10 30 -2z m21 -33 c-6 -8 -8 -17 -4 -21 4 -4 -1 -4 -11 0
-14 5 -17 4 -12 -4 4 -7 3 -12 -3 -12 -20 0 -21 19 -1 25 11 4 18 11 15 16 -4
5 1 9 11 9 13 0 14 -3 5 -13z m-4828 -254 c-7 -2 -19 -2 -25 0 -7 3 -2 5 12 5
14 0 19 -2 13 -5z m4572 -130 c13 -16 25 -33 25 -40 0 -6 6 -13 13 -16 10 -3
-60 -2 -73 2 -2 0 6 8 18 17 12 8 19 20 16 26 -4 6 -10 5 -15 -3 -7 -12 -9
-11 -10 1 -1 8 -1 18 0 22 0 4 -6 5 -14 2 -8 -4 -15 -1 -15 5 0 20 31 11 55
-16z m-4504 -56 c-13 -13 -26 -3 -16 12 3 6 11 8 17 5 6 -4 6 -10 -1 -17z
m-37 -27 c-10 -4 -21 -6 -24 -3 -8 7 24 22 34 16 5 -4 1 -10 -10 -13z m4558 1
c4 -1 5 -7 2 -15 -3 -7 6 -21 20 -30 25 -16 39 -55 14 -40 -7 4 -8 3 -4 -4 4
-6 14 -8 23 -5 11 4 14 3 9 -5 -4 -7 -2 -20 4 -29 7 -12 10 -13 7 -3 -2 8 2
20 9 27 18 18 29 16 14 -2 -10 -12 -10 -18 -1 -29 22 -26 -6 -27 -37 -1 -16
14 -33 25 -37 25 -4 0 -19 12 -33 27 -29 32 -38 93 -12 88 8 -2 18 -4 22 -4z
m91 -47 c-5 -13 -8 -13 -24 2 -10 9 -17 21 -16 28 1 6 -4 10 -11 8 -8 -1 -11
2 -7 8 10 16 65 -27 58 -46z m-228 26 c3 -6 -1 -7 -9 -4 -18 7 -21 14 -7 14 6
0 13 -4 16 -10z m264 -1020 c19 -16 37 -27 41 -25 4 2 7 -2 7 -10 0 -24 -34
-28 -55 -7 -11 11 -27 24 -36 29 -11 6 -14 16 -10 26 8 22 13 21 53 -13z
m-3154 -127 c-3 -16 -9 -53 -14 -83 l-9 -55 -1 60 c-1 66 7 105 20 105 5 0 6
-12 4 -27z m-1305 -17 c0 -2 -9 -6 -20 -9 -11 -3 -18 -1 -14 4 5 9 34 13 34 5z
m-118 -74 c8 -8 4 -13 -15 -17 -33 -9 -50 -3 -53 17 -1 12 6 15 27 14 16 -1
34 -7 41 -14z m4374 -317 c1 -8 -2 -13 -7 -9 -5 3 -9 12 -9 21 0 19 13 9 16
-12z m-3696 -9 c0 -2 -8 -10 -17 -17 -16 -13 -17 -12 -4 4 13 16 21 21 21 13z
m-50 -39 c0 -2 -15 -16 -32 -33 l-33 -29 29 33 c28 30 36 37 36 29z m3504 -9
c-5 -8 -2 -9 11 -4 15 5 16 4 5 -9 -8 -10 -17 -12 -23 -6 -9 9 -2 31 9 31 3 0
2 -5 -2 -12z m-3549 -78 c-3 -5 -12 -10 -18 -10 -7 0 -6 4 3 10 19 12 23 12
15 0z m-190 -60 c-3 -5 -16 -10 -28 -9 -20 1 -20 2 3 9 14 4 26 8 28 9 2 1 0
-3 -3 -9z m3660 -60 c10 -11 16 -20 13 -20 -3 0 -13 9 -23 20 -10 11 -16 20
-13 20 3 0 13 -9 23 -20z m45 -42 c0 -19 -16 -5 -17 14 -2 18 0 20 7 8 5 -8
10 -18 10 -22z m-3503 16 c-3 -3 -12 -4 -19 -1 -8 3 -5 6 6 6 11 1 17 -2 13
-5z m-44 -30 c-3 -8 -11 -13 -17 -11 -6 2 -22 0 -36 -6 -36 -14 -57 -15 -57
-2 0 6 9 11 20 10 11 -1 36 4 56 11 20 7 37 13 38 14 1 0 0 -7 -4 -16z m3502
-2 c-3 -3 -11 0 -18 7 -9 10 -8 11 6 5 10 -3 15 -9 12 -12z m-2945 4 c0 -3 -4
-8 -10 -11 -5 -3 -10 -1 -10 4 0 6 5 11 10 11 6 0 10 -2 10 -4z m3030 -41 c0
-5 -5 -3 -10 5 -5 8 -10 20 -10 25 0 6 5 3 10 -5 5 -8 10 -19 10 -25z m-57 4
c-4 -16 -8 -17 -14 -7 -7 10 -9 9 -9 -4 0 -11 -7 -16 -20 -15 -11 1 -20 2 -20
3 0 2 63 43 67 44 0 0 -1 -9 -4 -21z m-2996 -11 c2 -16 0 -19 -6 -10 -6 11
-10 10 -15 -4 -3 -9 -9 -14 -12 -11 -7 7 14 47 24 47 4 0 9 -10 9 -22z m2558
-8 c3 -6 -1 -7 -9 -4 -18 7 -21 14 -7 14 6 0 13 -4 16 -10z m581 -44 c1 -6 -7
-19 -16 -29 -13 -14 -20 -15 -26 -6 -4 7 -3 10 3 6 16 -10 24 18 10 33 -9 10
-9 11 1 6 15 -9 15 -2 2 27 -9 19 -9 19 7 -2 9 -13 18 -29 19 -35z m-1126 32
c0 -10 -19 -9 -45 2 -16 7 -14 9 13 7 17 -1 32 -5 32 -9z m40 8 c0 -11 -19
-15 -25 -6 -3 5 1 10 9 10 9 0 16 -2 16 -4z m-2573 -12 c-3 -3 -12 -4 -19 -1
-8 3 -5 6 6 6 11 1 17 -2 13 -5z m2458 -12 c-3 -3 -11 0 -18 7 -9 10 -8 11 6
5 10 -3 15 -9 12 -12z m1075 14 c0 -3 -4 -8 -10 -11 -5 -3 -10 -1 -10 4 0 6 5
11 10 11 6 0 10 -2 10 -4z m-1007 -20 c3 3 8 0 12 -6 5 -7 -2 -9 -22 -6 -15 2
-31 5 -35 5 -5 1 -8 5 -8 11 0 6 9 6 24 0 13 -5 26 -6 29 -4z m-2633 -22 c0
-2 -7 -4 -15 -4 -8 0 -15 4 -15 10 0 5 7 7 15 4 8 -4 15 -8 15 -10z m689 -31
c-8 -9 -16 -10 -22 -4 -13 13 0 31 19 24 11 -4 12 -8 3 -20z m2166 17 c-3 -5
-12 -10 -18 -10 -7 0 -6 4 3 10 19 12 23 12 15 0z m-37 -6 c-11 -10 -80 -15
-73 -4 3 5 22 10 42 10 20 0 34 -3 31 -6z m-2100 -33 c-7 -12 -16 -21 -21 -21
-4 0 0 11 10 24 22 29 30 27 11 -3z m2804 -3 c-9 -9 -15 -9 -24 1 -11 11 -10
13 5 8 10 -4 17 -2 17 5 0 6 3 8 7 5 4 -4 1 -13 -5 -19z m-722 8 c0 -2 -18 -6
-39 -8 -22 -2 -37 0 -35 4 5 8 74 11 74 4z m-2540 -76 c0 -5 -5 -10 -11 -10
-5 0 -7 5 -4 10 3 6 8 10 11 10 2 0 4 -4 4 -10z m2555 -160 c3 -5 1 -10 -4
-10 -6 0 -11 5 -11 10 0 6 2 10 4 10 3 0 8 -4 11 -10z m-10 -80 c3 -5 1 -10
-4 -10 -6 0 -11 5 -11 10 0 6 2 10 4 10 3 0 8 -4 11 -10z m160 -90 c3 -5 1
-10 -4 -10 -6 0 -11 5 -11 10 0 6 2 10 4 10 3 0 8 -4 11 -10z m-980 -10 c3 -5
-1 -10 -10 -10 -9 0 -13 5 -10 10 3 6 8 10 10 10 2 0 7 -4 10 -10z m-449 -12
c-3 -22 -17 -39 -27 -32 -6 4 -3 14 7 25 20 22 23 23 20 7z m50 -42 c14 -4 31
-11 37 -17 7 -5 21 -16 32 -24 19 -14 19 -14 -5 -9 -35 6 -93 15 -106 16 -13
1 -12 31 2 63 9 20 9 19 12 -2 2 -13 13 -24 28 -27z m269 23 c-18 -28 -101
-42 -135 -23 -23 13 -20 14 43 12 40 0 73 4 80 11 14 14 20 14 12 0z m-201
-40 c-4 -6 -11 -6 -20 2 -21 17 -17 31 6 19 11 -6 18 -15 14 -21z m1354 6 c-3
-3 -9 2 -12 12 -6 14 -5 15 5 6 7 -7 10 -15 7 -18z m-1268 -90 c14 -19 14 -19
-2 -6 -10 7 -18 18 -18 24 0 6 1 8 3 6 1 -2 9 -13 17 -24z m29 11 c9 -11 9
-16 -1 -22 -7 -4 -10 -4 -6 1 4 4 3 14 -3 22 -6 7 -9 13 -6 13 2 0 10 -6 16
-14z"/>
<path d="M4700 2685 c-7 -9 -8 -15 -2 -15 5 0 12 7 16 15 3 8 4 15 2 15 -2 0
-9 -7 -16 -15z"/>
<path d="M4696 2593 c-6 -14 -5 -15 5 -6 7 7 10 15 7 18 -3 3 -9 -2 -12 -12z"/>
<path d="M4855 1560 c3 -5 11 -10 16 -10 6 0 7 5 4 10 -3 6 -11 10 -16 10 -6
0 -7 -4 -4 -10z"/>
<path d="M2272 118 c2 -6 12 -12 22 -14 14 -2 15 0 5 12 -14 17 -32 19 -27 2z"/>
<path d="M175 5089 c-4 -6 -4 -13 -1 -16 3 -4 6 -1 6 6 0 7 5 9 12 5 7 -4 8
-3 4 4 -9 15 -13 15 -21 1z"/>
<path d="M152 5040 c-9 -15 -9 -21 1 -26 6 -4 9 -4 5 1 -4 4 -3 14 4 22 6 7 9
15 7 18 -3 2 -10 -4 -17 -15z"/>
<path d="M3118 4533 c7 -3 16 -2 19 1 4 3 -2 6 -13 5 -11 0 -14 -3 -6 -6z"/>
<path d="M3795 4409 c-11 -16 -1 -19 13 -3 7 8 8 14 3 14 -5 0 -13 -5 -16 -11z"/>
<path d="M123 3779 c3 -9 0 -22 -6 -28 -6 -6 -9 -13 -6 -15 11 -11 27 31 17
45 -8 11 -9 11 -5 -2z"/>
<path d="M4865 3750 c-4 -11 -31 -45 -61 -74 -38 -37 -52 -56 -43 -62 8 -5 10
-3 5 5 -5 8 -3 11 7 9 19 -4 93 75 102 109 7 31 -1 43 -10 13z"/>
<path d="M4741 3659 c-6 -18 -9 -34 -7 -36 2 -2 9 10 15 28 6 18 9 34 7 36 -2
2 -9 -10 -15 -28z"/>
<path d="M105 3630 c-3 -6 1 -7 9 -4 18 7 21 14 7 14 -6 0 -13 -4 -16 -10z"/>
<path d="M127 3597 c3 -15 9 -27 14 -27 13 0 11 13 -5 35 -13 18 -14 18 -9 -8z"/>
<path d="M4760 3596 c0 -2 7 -9 15 -16 13 -11 14 -10 9 4 -5 14 -24 23 -24 12z"/>
<path d="M4724 3578 c-4 -6 -3 -13 3 -15 15 -5 4 -55 -16 -72 -15 -13 -15 -13
1 -8 10 4 17 3 16 -1 -1 -4 2 -18 6 -31 6 -18 10 -21 17 -10 12 19 11 32 -2
23 -7 -4 -9 11 -5 50 5 42 3 56 -6 56 -9 0 -8 3 2 10 9 6 10 10 3 10 -6 0 -15
-5 -19 -12z"/>
<path d="M4760 3561 c0 -6 4 -13 10 -16 6 -3 7 1 4 9 -7 18 -14 21 -14 7z"/>
<path d="M4820 3550 c0 -14 -6 -20 -17 -18 -13 2 -17 -3 -16 -19 2 -15 -3 -23
-13 -23 -11 0 -14 5 -9 18 5 13 4 14 -6 5 -10 -10 -9 -15 1 -28 13 -15 45 -22
36 -7 -3 5 3 18 13 29 23 24 36 63 22 63 -6 0 -11 -9 -11 -20z"/>
<path d="M146 3527 c3 -10 9 -15 12 -12 3 3 0 11 -7 18 -10 9 -11 8 -5 -6z"/>
<path d="M4890 3481 c-8 -6 -18 -7 -24 -4 -5 3 -6 1 -2 -5 3 -6 2 -13 -4 -17
-5 -3 -10 -15 -10 -26 0 -10 -4 -19 -8 -19 -5 0 -17 -7 -28 -15 -19 -15 -19
-15 1 -8 25 8 61 32 58 38 -7 13 -1 26 19 45 23 21 23 26 -2 11z"/>
<path d="M4695 3460 c-3 -5 -1 -10 4 -10 6 0 11 5 11 10 0 6 -2 10 -4 10 -3 0
-8 -4 -11 -10z"/>
<path d="M4775 3420 c3 -5 8 -10 11 -10 2 0 4 5 4 10 0 6 -5 10 -11 10 -5 0
-7 -4 -4 -10z"/>
<path d="M4990 3140 c0 -5 5 -10 11 -10 5 0 7 5 4 10 -3 6 -8 10 -11 10 -2 0
-4 -4 -4 -10z"/>
<path d="M5035 3139 c-10 -15 3 -25 16 -12 7 7 7 13 1 17 -6 3 -14 1 -17 -5z"/>
<path d="M5027 3064 c2 -7 13 -12 24 -11 27 2 24 14 -5 19 -17 3 -23 1 -19 -8z"/>
<path d="M4980 3060 c8 -5 20 -10 25 -10 6 0 3 5 -5 10 -8 5 -19 10 -25 10 -5
0 -3 -5 5 -10z"/>
<path d="M5075 3040 c-3 -5 -1 -10 4 -10 6 0 11 5 11 10 0 6 -2 10 -4 10 -3 0
-8 -4 -11 -10z"/>
<path d="M4762 3024 c10 -10 20 -16 22 -13 3 3 -5 11 -17 18 -21 13 -21 12 -5
-5z"/>
<path d="M4790 3000 c-13 -8 -13 -11 -1 -19 8 -5 21 -6 30 -3 14 5 14 3 2 -11
-12 -15 -11 -17 10 -18 13 -1 27 -1 32 0 4 0 6 -3 5 -8 -3 -10 156 -122 176
-125 6 -1 17 -5 24 -9 14 -9 13 -10 17 25 4 27 -17 44 -37 31 -7 -3 -8 -1 -4
6 4 6 0 14 -8 17 -9 3 -16 10 -16 16 0 5 6 6 13 2 9 -5 9 -4 0 6 -9 10 -10 17
-1 27 8 11 7 12 -6 7 -9 -3 -27 1 -41 10 -25 17 -70 22 -78 9 -2 -5 -2 -3 -1
4 2 6 -3 16 -10 22 -18 15 -89 23 -106 11z m84 -19 c4 -5 -3 -7 -14 -4 -23 6
-26 13 -6 13 8 0 17 -4 20 -9z m134 -54 c7 -5 11 -11 9 -13 -5 -5 -67 26 -67
32 0 8 43 -7 58 -19z m-55 1 c32 -19 77 -60 77 -72 0 -5 -12 5 -26 22 -15 18
-32 32 -39 32 -12 0 -55 29 -42 30 4 0 17 -6 30 -12z m117 -88 c0 -5 -2 -10
-4 -10 -3 0 -8 5 -11 10 -3 6 -1 10 4 10 6 0 11 -4 11 -10z"/>
<path d="M5050 2890 c0 -5 5 -10 11 -10 5 0 7 5 4 10 -3 6 -8 10 -11 10 -2 0
-4 -4 -4 -10z"/>
<path d="M4775 2800 c3 -5 8 -10 11 -10 2 0 4 5 4 10 0 6 -5 10 -11 10 -5 0
-7 -4 -4 -10z"/>
<path d="M4905 2701 c-3 -6 -1 -12 4 -12 6 -1 16 -2 21 -3 6 0 15 -8 21 -16 8
-12 10 -12 7 -1 -6 21 -45 45 -53 32z"/>
<path d="M4970 2667 c0 -8 7 -14 15 -14 11 0 12 4 4 14 -6 7 -13 13 -15 13 -2
0 -4 -6 -4 -13z"/>
<path d="M5060 1721 c0 -5 7 -14 15 -21 12 -10 15 -10 15 3 0 8 -7 17 -15 21
-8 3 -15 2 -15 -3z"/>
<path d="M5060 1666 c0 -2 7 -7 16 -10 8 -3 12 -2 9 4 -6 10 -25 14 -25 6z"/>
<path d="M4905 1520 c3 -5 8 -10 11 -10 2 0 4 5 4 10 0 6 -5 10 -11 10 -5 0
-7 -4 -4 -10z"/>
<path d="M53 1431 c1 -23 29 -21 33 2 1 11 -5 17 -16 17 -12 0 -18 -7 -17 -19z"/>
<path d="M4730 1236 c0 -8 6 -16 14 -19 10 -4 12 0 9 14 -6 22 -23 26 -23 5z"/>
<path d="M4892 1195 c21 -22 39 -37 41 -34 2 2 -15 19 -37 38 l-41 35 37 -39z"/>
<path d="M50 871 c0 -11 5 -23 10 -26 6 -4 8 -11 5 -16 -3 -5 0 -6 8 -3 10 3
18 -6 26 -28 6 -18 24 -43 39 -56 l27 -23 -26 5 c-36 8 -34 -19 3 -45 15 -11
28 -18 28 -15 0 2 15 0 32 -5 31 -8 35 -6 82 44 27 28 70 73 94 99 38 40 42
47 24 45 -12 -1 -22 -5 -22 -10 0 -4 -4 -6 -9 -3 -4 3 -24 -3 -44 -13 -36 -18
-56 -19 -119 -6 -42 9 -100 39 -117 59 -18 22 -41 20 -41 -3z"/>
<path d="M4410 886 c0 -2 7 -7 16 -10 8 -3 12 -2 9 4 -6 10 -25 14 -25 6z"/>
<path d="M3777 673 c-11 -10 -8 -20 7 -26 8 -3 13 0 12 8 -3 19 -11 27 -19 18z"/>
<path d="M356 662 c-3 -5 1 -9 9 -9 8 0 12 4 9 9 -3 4 -7 8 -9 8 -2 0 -6 -4
-9 -8z"/>
<path d="M400 650 c8 -5 22 -9 30 -9 10 0 8 3 -5 9 -27 12 -43 12 -25 0z"/>
<path d="M990 642 c-8 -3 -17 -8 -20 -11 -5 -7 -100 -41 -122 -45 -7 -1 -17
-4 -23 -7 -5 -3 -56 -6 -112 -5 -101 1 -102 1 -70 -15 35 -18 137 -31 137 -17
0 5 9 4 19 -2 14 -7 22 -7 26 1 4 6 13 8 20 5 17 -6 125 46 149 73 21 23 19
31 -4 23z"/>
<path d="M4505 621 c-3 -5 -1 -12 5 -16 5 -3 10 1 10 9 0 18 -6 21 -15 7z"/>
<path d="M214 587 c-16 -17 -19 -23 -7 -13 12 10 28 16 35 14 7 -3 19 2 26 11
11 15 12 15 7 0 -5 -13 5 -18 44 -26 37 -7 51 -7 52 1 0 6 4 2 9 -9 6 -14 9
-15 10 -5 0 12 2 12 10 -2 6 -10 19 -15 30 -13 11 2 20 -1 20 -7 0 -6 11 -8
28 -4 18 4 22 4 13 -3 -11 -7 -9 -10 8 -16 11 -3 26 -3 32 1 8 5 9 3 4 -6 -6
-10 -4 -12 11 -6 10 4 15 4 11 0 -4 -4 3 -12 16 -19 14 -7 24 -8 28 -2 9 13
42 0 34 -13 -3 -5 -2 -10 3 -10 6 0 13 8 16 17 4 10 4 14 0 10 -4 -4 -13 -2
-19 3 -7 6 -24 11 -39 12 -14 1 -26 6 -26 9 0 6 -99 59 -120 64 -3 1 -12 5
-20 8 -20 9 -97 24 -156 32 -25 3 -37 -2 -60 -28z"/>
<path d="M3985 610 c-3 -5 -1 -10 4 -10 6 0 11 5 11 10 0 6 -2 10 -4 10 -3 0
-8 -4 -11 -10z"/>
<path d="M170 600 c-8 -5 -27 -10 -42 -10 -15 0 -30 -5 -33 -11 -4 -6 -13 -8
-21 -5 -8 3 -15 0 -15 -7 -1 -7 -3 -22 -4 -35 -2 -19 0 -20 13 -10 8 7 18 12
21 10 3 -2 7 2 9 10 2 8 0 9 -5 3 -4 -5 -15 -11 -23 -13 -8 -2 -1 8 15 22 33
28 41 31 50 16 3 -5 11 -10 17 -10 6 0 8 3 5 7 -4 3 5 15 20 25 16 10 24 18
18 18 -5 0 -17 -5 -25 -10z"/>
<path d="M4536 585 c4 -8 8 -15 10 -15 2 0 4 7 4 15 0 8 -4 15 -10 15 -5 0 -7
-7 -4 -15z"/>
<path d="M107 564 c-9 -9 4 -35 14 -28 5 3 9 12 9 20 0 14 -12 19 -23 8z"/>
<path d="M985 560 c-3 -6 1 -7 9 -4 18 7 21 14 7 14 -6 0 -13 -4 -16 -10z"/>
<path d="M1384 538 c-17 -23 -45 -78 -41 -78 8 0 60 80 55 85 -3 3 -9 0 -14
-7z"/>
<path d="M70 499 c0 -5 5 -7 10 -4 6 3 10 8 10 11 0 2 -4 4 -10 4 -5 0 -10 -5
-10 -11z"/>
<path d="M437 481 c-3 -15 -1 -18 11 -14 11 5 13 3 7 -7 -5 -9 -4 -11 4 -6 9
6 9 12 -1 24 -7 10 -13 18 -14 20 -1 1 -4 -6 -7 -17z"/>
<path d="M486 477 c3 -10 9 -15 12 -12 3 3 0 11 -7 18 -10 9 -11 8 -5 -6z"/>
<path d="M513 473 c0 -7 4 -13 8 -13 4 0 9 6 12 13 3 8 0 14 -7 14 -7 0 -13
-6 -13 -14z"/>
<path d="M1096 482 c-3 -5 1 -9 9 -9 8 0 12 4 9 9 -3 4 -7 8 -9 8 -2 0 -6 -4
-9 -8z"/>
<path d="M1144 478 c-4 -7 -3 -8 5 -4 6 4 20 2 29 -6 15 -12 16 -11 3 5 -16
20 -27 22 -37 5z"/>
<path d="M950 472 c0 -6 9 -12 20 -15 11 -3 20 -3 20 -1 0 2 -9 8 -20 14 -11
6 -20 7 -20 2z"/>
<path d="M1365 462 c-13 -27 -14 -43 -4 -36 5 3 7 9 4 14 -3 5 2 13 11 18 10
6 12 12 6 16 -5 3 -13 -2 -17 -12z"/>
<path d="M1556 465 c-24 -25 -19 -39 6 -15 12 11 19 22 16 25 -3 3 -13 -1 -22
-10z"/>
<path d="M570 460 c0 -5 5 -10 11 -10 5 0 7 5 4 10 -3 6 -8 10 -11 10 -2 0 -4
-4 -4 -10z"/>
<path d="M896 462 c-3 -5 1 -9 9 -9 8 0 12 4 9 9 -3 4 -7 8 -9 8 -2 0 -6 -4
-9 -8z"/>
<path d="M3616 417 c3 -10 9 -15 12 -12 3 3 0 11 -7 18 -10 9 -11 8 -5 -6z"/>
<path d="M1869 348 c-6 -21 -6 -39 1 -43 5 -3 7 3 6 12 -2 10 2 21 8 25 8 5 7
8 -1 8 -7 0 -13 -1 -14 -2z"/>
<path d="M3620 301 c0 -5 7 -15 17 -22 15 -13 15 -12 4 9 -12 23 -21 28 -21
13z"/>
<path d="M2874 96 c-4 -9 -4 -20 0 -23 3 -4 6 -1 6 5 0 7 5 12 11 12 5 0 7 -5
3 -12 -4 -6 -3 -8 4 -4 5 3 13 0 15 -6 3 -8 6 -8 6 -2 1 6 -8 19 -19 29 -18
16 -20 16 -26 1z"/>
<path d="M2645 90 c-6 -10 -5 -11 14 -14 5 0 13 -5 18 -10 4 -5 3 -6 -3 -3 -7
4 -14 1 -17 -7 -4 -10 0 -12 14 -9 22 6 23 12 5 36 -15 19 -22 21 -31 7z"/>
<path d="M2843 93 c-20 -7 -15 -21 10 -33 20 -10 20 -10 5 3 -13 10 -15 16 -6
25 13 13 11 14 -9 5z"/>
<path d="M2756 75 c-3 -8 -1 -15 4 -15 6 0 10 7 10 15 0 8 -2 15 -4 15 -2 0
-6 -7 -10 -15z"/>
<path d="M2784 79 c-2 -4 0 -10 6 -14 5 -3 10 -3 10 1 0 3 8 0 18 -7 15 -12
16 -12 5 2 -7 9 -11 18 -8 21 3 2 -2 5 -10 5 -9 0 -18 -4 -21 -8z"/>
<path d="M2630 62 c0 -5 -10 -14 -22 -20 -23 -10 -23 -10 -2 -9 22 1 54 37 34
37 -5 0 -10 -4 -10 -8z"/>
<path d="M2535 23 c2 -10 4 -20 4 -22 1 -2 7 2 14 8 8 6 18 7 22 3 5 -4 5 -1
1 6 -4 7 -12 10 -17 7 -5 -4 -9 -1 -9 4 0 6 -4 11 -9 11 -5 0 -8 -8 -6 -17z"/>
</g>
</svg>
